<svg version="1.2" xmlns="http://www.w3.org/2000/svg" xmlns:xlink="http://www.w3.org/1999/xlink" overflow="visible" preserveAspectRatio="none" viewBox="0 0 24 23.99999272486572" width="24" height="23.99999272486572"><g transform="translate(0, 0)"><g transform="translate(0, -0.000009999999999621423) rotate(0)"><path d="M24,12.03875c-0.09701,6.64942 -5.27728,11.98059 -12.0291,11.9612c-6.79062,-0.01939 -11.9709,-5.35055 -11.9709,-11.99997c0,-6.63003 5.18027,-11.98059 11.9903,-11.99997c6.77122,0 11.9709,5.36994 12.0097,12.03875zM10.47696,12.03875c-1.0865,1.06623 -2.05659,2.01615 -3.00728,2.94668c0.52385,0.52342 1.02829,1.04685 1.66855,1.68659c0.95069,-0.98869 1.90137,-1.99676 2.98787,-3.12116c1.00889,1.02746 1.99838,1.99676 2.89086,2.90791c0.48504,-0.46527 1.00889,-0.9693 1.62975,-1.57027c-0.97009,-0.94992 -1.95958,-1.93861 -3.02668,-2.98545c0.98949,-0.9693 1.97898,-1.93861 2.89086,-2.83037c-0.52385,-0.5622 -1.00889,-1.10501 -1.53274,-1.64782c-0.98949,0.98869 -1.94018,1.97738 -2.94907,3.00484c-1.02829,-1.04685 -2.01778,-2.03554 -2.92967,-2.96607c-0.60146,0.54281 -1.1447,1.04685 -1.74616,1.58966c1.02829,0.9693 2.01778,1.91922 3.12369,2.98545z" style="stroke-width: 0; stroke-linecap: butt; stroke-linejoin: miter; fill: rgb(82, 117, 161);" vector-effect="non-scaling-stroke"/></g><defs><path id="path-167630033120084695" d="M24,12.03875c-0.09701,6.64942 -5.27728,11.98059 -12.0291,11.9612c-6.79062,-0.01939 -11.9709,-5.35055 -11.9709,-11.99997c0,-6.63003 5.18027,-11.98059 11.9903,-11.99997c6.77122,0 11.9709,5.36994 12.0097,12.03875zM10.47696,12.03875c-1.0865,1.06623 -2.05659,2.01615 -3.00728,2.94668c0.52385,0.52342 1.02829,1.04685 1.66855,1.68659c0.95069,-0.98869 1.90137,-1.99676 2.98787,-3.12116c1.00889,1.02746 1.99838,1.99676 2.89086,2.90791c0.48504,-0.46527 1.00889,-0.9693 1.62975,-1.57027c-0.97009,-0.94992 -1.95958,-1.93861 -3.02668,-2.98545c0.98949,-0.9693 1.97898,-1.93861 2.89086,-2.83037c-0.52385,-0.5622 -1.00889,-1.10501 -1.53274,-1.64782c-0.98949,0.98869 -1.94018,1.97738 -2.94907,3.00484c-1.02829,-1.04685 -2.01778,-2.03554 -2.92967,-2.96607c-0.60146,0.54281 -1.1447,1.04685 -1.74616,1.58966c1.02829,0.9693 2.01778,1.91922 3.12369,2.98545z" vector-effect="non-scaling-stroke"/></defs></g></svg>