<svg version="1.2" xmlns="http://www.w3.org/2000/svg" xmlns:xlink="http://www.w3.org/1999/xlink" overflow="visible" preserveAspectRatio="none" viewBox="0 0 19.27543424317605 19.196046128500825" width="19.27543424317605" height="19.196046128500825"><g transform="translate(0, 0)"><defs><path id="path-167630033119784680" d="M19.990074441687206 11.703459637561782 C18.91811414392047 12.751235584843494 17.72704714640187 13.897858319604607 16.535980148883265 15.064250411861607 C13.895781637717034 17.71334431630972 11.235732009925483 20.36243822075782 8.595533498759247 23.031301482701807 C8.039702233250567 23.60461285008237 7.464019851116574 23.980230642504107 6.6501240694788635 24.059308072487642 C4.903225806451581 24.237232289950573 3.1761786600496076 24.5337726523888 1.4292803970223233 24.771004942339367 C1.2307692307692222 24.790774299835256 1.0322580645161217 24.810543657331138 0.7146401985111615 24.830313014827013 C0.8138957816377111 24.059308072487642 0.8734491315136418 23.347611202635917 0.992555831265502 22.635914332784168 C1.1910669975186021 21.17298187808896 1.409429280397013 19.729818780889623 1.647642679900733 18.266886326194395 C1.667493796526043 18.02965403624382 1.786600496277903 17.77265238879736 1.9652605459056938 17.594728171334424 C5.935483870967702 13.62108731466228 9.925558312655022 9.667215815485994 13.915632754342344 5.693574958813835 C13.95533498759296 5.654036243822072 13.995037220843587 5.634266886326195 13.995037220843587 5.634266886326195 C15.960297766749267 7.630971993410213 17.925558312654964 9.607907742998352 19.990074441687206 11.703459637561782 Z" vector-effect="non-scaling-stroke"/></defs><g transform="translate(-0.7146401985111615, -5.634266886326195)"><path d="M19.990074441687206 11.703459637561782 C18.91811414392047 12.751235584843494 17.72704714640187 13.897858319604607 16.535980148883265 15.064250411861607 C13.895781637717034 17.71334431630972 11.235732009925483 20.36243822075782 8.595533498759247 23.031301482701807 C8.039702233250567 23.60461285008237 7.464019851116574 23.980230642504107 6.6501240694788635 24.059308072487642 C4.903225806451581 24.237232289950573 3.1761786600496076 24.5337726523888 1.4292803970223233 24.771004942339367 C1.2307692307692222 24.790774299835256 1.0322580645161217 24.810543657331138 0.7146401985111615 24.830313014827013 C0.8138957816377111 24.059308072487642 0.8734491315136418 23.347611202635917 0.992555831265502 22.635914332784168 C1.1910669975186021 21.17298187808896 1.409429280397013 19.729818780889623 1.647642679900733 18.266886326194395 C1.667493796526043 18.02965403624382 1.786600496277903 17.77265238879736 1.9652605459056938 17.594728171334424 C5.935483870967702 13.62108731466228 9.925558312655022 9.667215815485994 13.915632754342344 5.693574958813835 C13.95533498759296 5.654036243822072 13.995037220843587 5.634266886326195 13.995037220843587 5.634266886326195 C15.960297766749267 7.630971993410213 17.925558312654964 9.607907742998352 19.990074441687206 11.703459637561782 Z" style="stroke-width: 0; stroke-linecap: butt; stroke-linejoin: miter; fill: rgb(82, 117, 161);" vector-effect="non-scaling-stroke"/></g></g></svg>